<?xml version="1.0" encoding="UTF-8"?>
<svg  width="147px" height="28px" viewBox="0 0 147 28" version="1.1" xmlns="http://www.w3.org/2000/svg" xmlns:xlink="http://www.w3.org/1999/xlink">
    <defs>
        <clipPath id="clip">
            <path
                d="M134.638951,20.2171802 C134.683411,18.2006818 134.994824,16.2780015 135.573198,14.4490902 C135.725599,13.958021 135.975363,13.5981913 136.322498,13.3695902 C136.669633,13.140989 137.156461,13.0266902 137.782998,13.0266902 C138.121666,13.0266902 138.358731,13.0690231 138.494198,13.1536902 C138.629665,13.2383573 138.697398,13.3992223 138.697398,13.6362902 C138.697398,13.9072249 138.570399,14.5168187 138.316398,15.4650901 C138.147064,16.1424269 138.011598,16.7350876 137.909998,17.2430901 C137.808397,17.7510926 137.723732,18.3776197 137.655998,19.1226901 C138.214801,17.6664162 138.841328,16.4810947 139.535598,15.5666901 C140.229868,14.6522856 140.907195,14.0003588 141.567598,13.6108902 C142.228001,13.2214216 142.829128,13.0266902 143.370998,13.0266902 C143.862067,13.0266902 144.23883,13.1663888 144.501298,13.4457902 C144.763766,13.7251916 144.894998,14.1358208 144.894998,14.6776902 C144.894998,14.9994251 144.801865,15.609019 144.615598,16.5064901 L144.844198,16.5064901 C145.216733,16.5064901 145.53423,16.6377221 145.796698,16.9001901 C146.059166,17.1626581 146.190398,17.4886215 146.190398,17.8780901 C146.190398,18.0982245 146.139598,18.3352888 146.037998,18.5892901 C145.767063,19.2158266 145.386067,19.7407546 144.894998,20.1640901 C144.403929,20.5874255 143.862067,20.7990901 143.269398,20.7990901 C142.795262,20.7990901 142.3931,20.6297584 142.062898,20.2910901 C141.732696,19.9524217 141.567598,19.4952263 141.567598,18.9194901 C141.567598,18.5977552 141.584531,18.2506253 141.618398,17.8780901 C141.652265,17.6071554 141.669198,17.4208906 141.669198,17.3192901 C141.669198,17.1838228 141.639565,17.0822238 141.580298,17.0144901 C141.521031,16.9467564 141.449065,16.9128901 141.364398,16.9128901 C141.12733,16.9128901 140.8056,17.1965206 140.399198,17.7637901 C139.992796,18.3310596 139.5864,19.0803521 139.179998,20.0116901 C138.773596,20.943028 138.443399,21.9251515 138.189398,22.95809 C138.00313,23.7708941 137.791466,24.3127553 137.554398,24.58369 C137.31733,24.8546247 136.927867,24.99009 136.385998,24.99009 C135.742528,24.99009 135.289566,24.6514267 135.027098,23.97409 C134.941245,23.7525347 134.869434,23.4874989 134.811664,23.1789815 C134.421423,23.4714955 133.985236,23.7534644 133.503098,24.02489 C132.360092,24.6683599 131.136671,24.99009 129.832798,24.99009 C128.054789,24.99009 126.674736,24.5074948 125.692598,23.54229 C125.506955,23.3598476 125.338857,23.1647009 125.188305,22.9568496 C124.72435,23.4012957 124.253216,23.7911744 123.774898,24.12649 C122.953627,24.7022262 122.01807,24.99009 120.968198,24.99009 C120.104594,24.99009 119.452667,24.7403258 119.012398,24.24079 C118.572129,23.7412542 118.351998,23.0173614 118.351998,22.06909 C118.351998,21.5949543 118.47053,20.7482962 118.707598,19.5290901 C118.927733,18.4622848 119.037798,17.7256921 119.037798,17.3192901 C119.037798,17.0483554 118.944666,16.9128901 118.758398,16.9128901 C118.538264,16.9128901 118.225,17.1965206 117.818598,17.7637901 C117.412196,18.3310596 117.0058,19.0803521 116.599398,20.0116901 C116.192996,20.943028 115.8628,21.9251515 115.608798,22.95809 C115.287063,24.3127634 114.491205,24.99009 113.221198,24.99009 C112.713196,24.99009 112.378766,24.8080585 112.217898,24.44399 C112.114992,24.2110961 112.045,23.8586743 112.007923,23.3867196 C111.694337,23.6573465 111.370629,23.9039362 111.036798,24.12649 C110.173194,24.7022262 109.182604,24.99009 108.064998,24.99009 C105.074421,24.99009 103.378373,23.1689202 102.97682,19.5265334 C102.890614,19.5952215 102.79174,19.6468736 102.680198,19.6814901 C101.664193,20.0370919 100.546605,20.2402898 99.3273985,20.2910901 C99.0056636,21.7134972 98.3706699,22.8522524 97.4223986,23.70739 C96.4741272,24.5625276 95.3988713,24.99009 94.1965986,24.99009 C93.1805935,24.99009 92.3127689,24.7445591 91.5930986,24.25349 C90.8734284,23.7624209 90.3273339,23.1104941 89.9547987,22.29769 C89.7640654,21.8815448 89.6221594,21.4476478 89.5290798,20.9959958 C89.0248824,21.2033928 88.4979252,21.3070901 87.9481987,21.3070901 C87.0507276,21.3070901 86.3691677,21.0784923 85.9034987,20.6212901 C85.4378297,20.1640878 85.2049987,19.5460273 85.2049987,18.7670901 C85.2049987,18.5130888 85.2303985,18.2590914 85.2811987,18.0050901 C85.3150656,17.6664217 85.3319987,17.437824 85.3319987,17.3192901 C85.3319987,17.0483554 85.2388663,16.9128901 85.0525987,16.9128901 C84.7985975,16.9128901 84.4641675,17.1965206 84.0492988,17.7637901 C83.63443,18.3310596 83.2238008,19.0803521 82.8173988,20.0116901 C82.4109967,20.943028 82.0808001,21.9251515 81.8267988,22.95809 C81.6405312,23.7539607 81.4246334,24.2915886 81.1790988,24.57099 C80.9335642,24.8503914 80.5483348,24.99009 80.0233988,24.99009 C79.3799289,24.99009 78.9269668,24.6514267 78.6644988,23.97409 C78.4020309,23.2967533 78.2707988,22.2130308 78.2707988,20.7228901 C78.2707988,18.5215458 78.5840624,16.4303 79.2105988,14.4490902 C79.3629996,13.958021 79.6127638,13.5981913 79.9598988,13.3695902 C80.3070339,13.140989 80.7938623,13.0266902 81.4203988,13.0266902 C81.7590671,13.0266902 81.9961314,13.0690231 82.1315988,13.1536902 C82.2670661,13.2383573 82.3347988,13.3992223 82.3347988,13.6362902 C82.3347988,13.9072249 82.2078001,14.5168187 81.9537988,15.4650901 C81.7844646,16.1424269 81.6489993,16.7350876 81.5473988,17.2430901 C81.4457983,17.7510926 81.3611325,18.3776197 81.2933988,19.1226901 C81.8522016,17.6664162 82.4787286,16.4810947 83.1729988,15.5666901 C83.8672689,14.6522856 84.5488287,14.0003588 85.2176987,13.6108902 C85.8865687,13.2214216 86.5003959,13.0266902 87.0591987,13.0266902 C88.1598709,13.0266902 88.7101987,13.577018 88.7101987,14.6776902 C88.7101987,14.8978246 88.6339994,15.4312192 88.4815987,16.2778901 C88.3461313,16.9552268 88.2783987,17.3785559 88.2783987,17.5478901 C88.2783987,18.1405597 88.4900632,18.4368901 88.9133987,18.4368901 C89.0893282,18.4368901 89.2839076,18.3856001 89.4971378,18.2830195 C89.6116749,17.5381268 89.8234945,16.8485865 90.1325987,16.2143901 C90.6236678,15.2068518 91.3009943,14.4194597 92.1645986,13.8521902 C93.0282029,13.2849207 93.9849267,13.0012902 95.0347986,13.0012902 C96.3217383,13.0012902 97.3588946,13.4457857 98.1462985,14.3347902 C98.9337025,15.2237946 99.3951312,16.3202169 99.5305985,17.6240901 C100.326469,17.5732899 101.274726,17.4039582 102.375398,17.1160901 C102.510866,17.0822233 102.629398,17.0652901 102.730998,17.0652901 C102.786987,17.0652901 102.83969,17.0724101 102.889106,17.0866501 C102.899204,16.5421301 102.922701,15.9931464 102.959598,15.4396901 L101.968998,15.4396901 C101.460996,15.4396901 101.118099,15.3465577 100.940299,15.1602901 C100.762498,14.9740225 100.673599,14.6776922 100.673599,14.2712902 C100.673599,13.3230188 101.054595,12.8488902 101.816598,12.8488902 L103.264398,12.8488902 C103.552267,10.9862142 103.992529,9.28443127 104.585198,7.74349026 C105.177868,6.20254924 105.893294,4.97489487 106.731498,4.06049031 C107.569703,3.14608575 108.471394,2.68889033 109.436598,2.68889033 C110.147802,2.68889033 110.706596,3.00215386 111.112998,3.62869032 C111.5194,4.25522677 111.722598,5.04261889 111.722598,5.99089028 C111.722598,8.61557003 110.621943,10.9015471 108.420598,12.8488902 L111.265398,12.8488902 C111.536333,12.8488902 111.731064,12.9081563 111.849598,13.0266902 C111.968132,13.1452241 112.027398,13.3653552 112.027398,13.6870902 C112.027398,14.855496 111.070675,15.4396901 109.157198,15.4396901 L106.058398,15.4396901 C106.024532,16.286361 106.007598,16.9467544 106.007598,17.4208901 C106.007598,19.1819656 106.21503,20.4180865 106.629898,21.1292901 C107.044767,21.8404936 107.700927,22.19609 108.598398,22.19609 C109.326535,22.19609 109.969996,21.9759589 110.528798,21.53569 C110.962985,21.1936035 111.458504,20.7186231 112.015365,20.1107397 L112.027398,19.1480901 C112.027398,16.5403438 112.294096,13.822571 112.827498,10.9946902 C113.360901,8.16680944 114.148293,5.79193323 115.189698,3.86999031 C116.231103,1.9480474 117.479924,0.987090357 118.936198,0.987090357 C119.715135,0.987090357 120.345896,1.32152034 120.828498,1.99039034 C121.311101,2.65926034 121.552398,3.52708499 121.552398,4.5938903 C121.552398,6.3041655 121.05287,8.0779144 120.053798,9.91519022 C119.054727,11.752466 117.429143,13.8987446 115.176998,16.3540901 C115.126198,17.2346279 115.100798,18.1405521 115.100798,19.0718901 C115.659601,17.6325496 116.281895,16.459928 116.967698,15.5539901 C117.653502,14.6480523 118.330828,14.0003588 118.999698,13.6108902 C119.668568,13.2214216 120.282395,13.0266902 120.841198,13.0266902 C121.94187,13.0266902 122.492198,13.577018 122.492198,14.6776902 C122.492198,15.3380934 122.305933,16.5318815 121.933398,18.2590901 C121.611663,19.7322974 121.450798,20.7059544 121.450798,21.1800901 C121.450798,21.8574268 121.696329,22.19609 122.187398,22.19609 C122.526067,22.19609 122.928229,21.9886588 123.393898,21.57379 C123.647752,21.3476298 123.94815,21.0447318 124.295096,20.665093 C124.244631,20.3216315 124.219398,19.9598973 124.219398,19.5798901 C124.219398,18.4114843 124.464929,17.3235285 124.955998,16.3159901 C125.447067,15.3084518 126.128627,14.5083598 127.000698,13.9156902 C127.872769,13.3230205 128.859126,13.0266902 129.959798,13.0266902 C130.941936,13.0266902 131.729328,13.3187873 132.321998,13.9029902 C132.914668,14.4871931 133.210998,15.2788185 133.210998,16.2778901 C133.210998,17.446296 132.791902,18.4495859 131.953698,19.2877901 C131.115494,20.1259943 129.697341,20.7906209 127.699198,21.2816901 C128.122534,22.0606273 128.926859,22.45009 130.112198,22.45009 C130.874202,22.45009 131.742027,22.1833927 132.715698,21.64999 C133.42678,21.2604408 134.067861,20.7828403 134.638951,20.2171802 Z M59.7741775,20.1684248 C59.9049525,19.1568904 60.0591595,18.1267471 60.2367991,17.0779901 C60.677068,14.4787105 61.2358624,11.968369 61.9131991,9.54689023 C62.031733,9.12355479 62.2687973,8.82722442 62.6243991,8.65789024 C62.9800008,8.48855606 63.4456629,8.40389025 64.0213991,8.40389025 C65.0543375,8.40389025 65.570799,8.69175403 65.570799,9.26749023 C65.570799,9.50455808 65.5199995,9.7754887 65.418399,10.0802902 C64.9781302,11.4010968 64.5378679,13.1917789 64.0975991,15.4523901 C63.6573302,17.7130014 63.3440667,19.8677465 63.1577991,21.91669 C63.9706031,21.9844237 64.6309965,22.01829 65.138999,22.01829 C67.5096775,22.01829 69.2495601,21.6753935 70.358699,20.9895901 C71.4678378,20.3037866 72.0223989,19.4274954 72.0223989,18.3606901 C72.0223989,17.6156197 71.7049021,16.9890927 71.0698989,16.4810901 C70.4348958,15.9730876 69.3723398,15.6936904 67.882199,15.6428901 C67.5435306,15.6259567 67.3064663,15.5412909 67.170999,15.3888901 C67.0355317,15.2364894 66.967799,14.9909585 66.967799,14.6522902 C66.967799,14.161221 67.069398,13.7632917 67.272599,13.4584902 C67.4758,13.1536887 67.8483296,12.9928236 68.390199,12.9758902 C69.5924716,12.9420233 70.6804274,12.7642251 71.6540989,12.4424902 C72.6277705,12.1207552 73.3939961,11.6677931 73.9527989,11.0835902 C74.5116017,10.4993873 74.7909989,9.81782745 74.7909989,9.03889024 C74.7909989,8.05675201 74.3084037,7.28205977 73.3431989,6.71479027 C72.3779941,6.14752078 70.8963423,5.86389028 68.898199,5.86389028 C67.0863233,5.86389028 65.3337408,6.09672129 63.6403991,6.56239027 C61.9470573,7.02805926 60.5077384,7.6164867 59.3223991,8.32769025 C58.7805298,8.64942518 58.3233343,8.81029024 57.9507991,8.81029024 C57.6459976,8.81029024 57.4131666,8.70445797 57.2522992,8.49279024 C57.0914317,8.28112252 57.0109992,8.01442519 57.0109992,7.69269026 C57.0109992,7.26935481 57.0998983,6.90529179 57.2776992,6.60049027 C57.4555,6.29568875 57.8830624,5.9485589 58.5603991,5.55909029 C59.9828062,4.74628624 61.6507229,4.1112926 63.5641991,3.65409032 C65.4776753,3.19688804 67.4334557,2.96829033 69.431599,2.96829033 C72.4965476,2.96829033 74.7825247,3.48475182 76.2895989,4.5176903 C77.796673,5.55062879 78.5501988,6.91374847 78.5501988,8.60709024 C78.5501988,10.0464308 78.0422039,11.286785 77.0261989,12.3281902 C76.0101938,13.3695954 74.528542,14.1188879 72.5811989,14.5760902 C73.6310708,14.8639583 74.4269295,15.3338535 74.9687989,15.9857901 C75.5106683,16.6377267 75.7815989,17.3870192 75.7815989,18.2336901 C75.7815989,19.5714301 75.3625031,20.7313518 74.5242989,21.71349 C73.6860947,22.6956283 72.4626736,23.4533874 70.853999,23.98679 C69.2453243,24.5201927 67.306477,24.78689 65.037399,24.78689 C64.1907282,24.78689 63.5134016,24.7614903 63.0053991,24.71069 C62.9884657,25.1848257 62.7852677,25.5404221 62.3957991,25.77749 C62.0063305,26.0145578 61.5068021,26.13309 60.8971991,26.13309 C60.2875961,26.13309 59.8685003,25.9976247 59.6398991,25.72669 C59.411298,25.4557553 59.3139323,25.057826 59.3477991,24.53289 C59.4152523,23.4836181 59.5109011,22.4119621 59.6347462,21.3179157 C59.55505,21.5486617 59.4424678,21.7482526 59.2969991,21.91669 C58.6704627,22.6786938 57.7857049,23.3814201 56.6426992,24.02489 C55.4996935,24.6683599 54.2762724,24.99009 52.9723992,24.99009 C51.1943904,24.99009 49.8143375,24.5074948 48.8321993,23.54229 C47.9830124,22.7077443 47.5009476,21.6073704 47.3859952,20.2411427 C47.0145107,20.2913744 46.6329794,20.3164901 46.2413993,20.3164901 C45.4963289,20.3164901 44.7936026,20.2148911 44.1331994,20.0116901 C43.6421302,20.8075607 43.100269,21.6288191 42.5075994,22.47549 C41.8302627,23.4406948 41.2460685,24.1010882 40.7549994,24.45669 C40.2639303,24.8122918 39.7051359,24.99009 39.0785994,24.99009 C38.3843293,24.99009 37.8382348,24.7191594 37.4402995,24.17729 C37.1945564,23.8426612 37.0053203,23.3885688 36.8725892,22.8150066 C36.4141038,23.297814 35.9387091,23.7265066 35.4463995,24.10109 C34.6674623,24.6937596 33.9139365,24.99009 33.1857995,24.99009 C32.6269967,24.99009 32.1147685,24.7995919 31.6490995,24.41859 C31.1834305,24.0375881 30.8320674,23.5168933 30.5949996,22.85649 C29.7144618,24.2788971 28.6053396,24.99009 27.2675996,24.99009 C26.2177277,24.99009 25.3795361,24.6090938 24.7529996,23.84709 C24.6152017,23.6794979 24.4925573,23.5004391 24.3850664,23.3099133 C23.1031498,24.4300352 21.7610681,24.99009 20.3587997,24.99009 C18.7162582,24.99009 17.403938,24.3550964 16.4217998,23.08509 C15.4396615,21.8150837 14.9485998,19.9947686 14.9485998,17.6240901 C14.9485998,17.0483539 14.9739995,16.4726263 15.0247998,15.8968901 C13.9071942,16.1000911 12.6880064,16.2524896 11.3671998,16.3540901 C10.4866621,16.4218238 9.88553481,16.4641567 9.56379987,16.4810901 C9.22513151,18.2082987 8.75100293,20.3249442 8.14139989,22.83109 C7.78579812,24.3042974 7.10847157,25.04089 6.10939992,25.04089 C5.02566118,25.04089 4.48379994,24.5498282 4.48379994,23.56769 C4.48379994,23.3475556 4.52613285,23.0427586 4.61079994,22.65329 C5.18653615,20.3334118 5.64373157,18.3691648 5.98239992,16.7604901 L4.76319994,16.8112901 C4.20439715,16.8112901 3.79800122,16.7139244 3.54399996,16.5191901 C3.28999869,16.3244558 3.16299996,16.006959 3.16299996,15.5666901 C3.16299996,15.0078874 3.32386502,14.5972581 3.64559996,14.3347902 C3.96733489,14.0723222 4.50072955,13.924157 5.24579993,13.8902902 L6.59199991,13.8394902 C7.03226877,11.4518783 7.2523999,9.63156316 7.2523999,8.37849025 C7.2523999,7.58261961 7.13386776,7.04075837 6.89679991,6.75289027 C6.65973206,6.46502217 6.34646853,6.32109028 5.95699992,6.32109028 C4.77166068,6.32109028 3.43394074,7.31168036 1.94379998,9.29289023 C1.72366555,9.58075833 1.47813468,9.72469023 1.20719999,9.72469023 C0.970132145,9.72469023 0.76693418,9.61462466 0.597600002,9.39449023 C0.428265825,9.1743558 0.343600006,8.8949586 0.343600006,8.55629024 C0.343600006,8.03135429 0.555264553,7.47255989 0.978599997,6.87989027 C1.72367038,5.84695179 2.66346097,4.99606031 3.79799995,4.32719031 C4.93253894,3.65832031 6.08399408,3.32389032 7.2523999,3.32389032 C8.35307206,3.32389032 9.20396353,3.70065322 9.80509986,4.45419031 C10.4062362,5.2077274 10.7067999,6.38034898 10.7067999,7.97209025 C10.7067999,9.37756393 10.5036019,11.2825448 10.0971999,13.6870902 L12.5863998,13.5600902 C13.6532051,13.5092899 14.567596,13.4246241 15.3295998,13.3060902 C15.6344013,11.4434142 16.1000633,9.69929835 16.7265998,8.07369025 C17.3531362,6.44808215 18.1320617,5.12729538 19.0633997,4.11129031 C19.9947377,3.09528525 21.0361273,2.58729033 22.1875997,2.58729033 C23.0342706,2.58729033 23.7031305,2.92172032 24.1941996,3.59059032 C24.6852688,4.25946032 24.9307996,5.13575154 24.9307996,6.21949028 C24.9307996,10.4189779 22.7887544,13.331482 18.5045997,14.9570901 C18.4537995,15.6344269 18.4283997,16.3371532 18.4283997,17.0652901 C18.4283997,18.843299 18.6485309,20.1048197 19.0887997,20.8498901 C19.5290686,21.5949604 20.1471291,21.96749 20.9429997,21.96749 C21.6372698,21.96749 22.2722635,21.7854585 22.8479997,21.4213901 C23.149682,21.2306204 23.4722839,20.9689498 23.8158083,20.6363758 C23.8470779,19.3602591 24.1594724,18.1487414 24.7529996,17.0017901 C25.3795361,15.7910507 26.2134944,14.8173938 27.2548996,14.0807902 C28.2963048,13.3441865 29.4011937,12.9758902 30.5695996,12.9758902 C30.9421347,12.9758902 31.1918989,13.0478561 31.3188995,13.1917902 C31.4459002,13.3357242 31.5517324,13.593955 31.6363995,13.9664902 C31.9920013,13.8987565 32.3645309,13.8648902 32.7539995,13.8648902 C33.583737,13.8648902 33.9985995,14.1612205 33.9985995,14.7538902 C33.9985995,15.1094919 33.8716008,15.9561501 33.6175995,17.2938901 C33.2281309,19.2412332 33.0333995,20.5958863 33.0333995,21.3578901 C33.0333995,21.6118913 33.0968989,21.8150893 33.2238995,21.96749 C33.3509001,22.1198908 33.5159985,22.19609 33.7191995,22.19609 C34.0409344,22.19609 34.4303972,21.9886588 34.8875995,21.57379 C35.3066874,21.1935066 35.8609316,20.5962576 36.5503466,19.7820274 C36.4409148,18.15806 36.3861995,16.6936891 36.3861995,15.3888901 L36.3861995,14.4998902 C36.4031329,13.9410874 36.5555314,13.5516246 36.8433995,13.3314902 C37.1312676,13.1113557 37.5630632,13.0012902 38.1387994,13.0012902 C38.5790683,13.0012902 38.9050317,13.0986559 39.1166994,13.2933902 C39.3283671,13.4881245 39.4341994,13.8140879 39.4341994,14.2712902 C39.4341994,16.2186332 39.5527316,18.7501412 39.7897994,21.86589 C40.8058045,20.3588159 41.5677968,19.1565612 42.0757994,18.2590901 C41.8217981,17.768021 41.6947994,17.1838268 41.6947994,16.5064901 C41.6947994,15.9307539 41.8217981,15.3719595 42.0757994,14.8300902 C42.3298006,14.2882208 42.6769305,13.8479585 43.1171994,13.5092902 C43.5574682,13.1706218 44.0569966,13.0012902 44.6157993,13.0012902 C45.1068685,13.0012902 45.5047978,13.1748551 45.8095993,13.5219902 C46.1144008,13.8691252 46.2667993,14.3728869 46.2667993,15.0332901 C46.2667993,15.7952939 46.0636014,16.6673519 45.6571993,17.6494901 C46.1873024,17.6215899 46.8610511,17.5304832 47.6784598,17.3761676 C47.7888809,17.0133989 47.9279273,16.6600069 48.0955993,16.3159901 C48.5866684,15.3084518 49.2682282,14.5083598 50.1402993,13.9156902 C51.0123703,13.3230205 51.9987271,13.0266902 53.0993992,13.0266902 C54.0815374,13.0266902 54.8689296,13.3187873 55.4615992,13.9029902 C56.0542688,14.4871931 56.3505992,15.2788185 56.3505992,16.2778901 C56.3505992,17.446296 55.9315034,18.4495859 55.0932992,19.2877901 C54.255095,20.1259943 52.8369425,20.7906209 50.8387993,21.2816901 C51.2621347,22.0606273 52.06646,22.45009 53.2517992,22.45009 C54.013803,22.45009 54.8816277,22.1833927 55.8552992,21.64999 C56.8289707,21.1165874 57.6713956,20.4180944 58.3825991,19.5544901 C58.5858002,19.3174222 58.8143979,19.1988901 59.0683991,19.1988901 C59.2885336,19.1988901 59.4620985,19.3004891 59.5890991,19.5036901 C59.6946746,19.6726108 59.756367,19.8941874 59.7741775,20.1684248 Z M51.0800992,16.6080901 C50.6482971,17.3362271 50.4323993,18.2167516 50.4323993,19.2496901 L50.4323993,19.3004901 C51.4314709,19.0634222 52.218863,18.7078258 52.7945992,18.2336901 C53.3703354,17.7595544 53.6581992,17.2092266 53.6581992,16.5826901 C53.6581992,16.2609552 53.5693001,16.0027244 53.3914992,15.8079901 C53.2136983,15.6132558 52.9724007,15.5158901 52.6675992,15.5158901 C52.0410628,15.5158901 51.5119014,15.8799532 51.0800992,16.6080901 Z M95.8094986,21.63729 C96.2074339,21.1970212 96.4741312,20.5620275 96.6095986,19.7322901 C96.0846626,19.3766883 95.6825,18.9110263 95.4030986,18.3352901 C95.1236972,17.7595539 94.9839986,17.14996 94.9839986,16.5064901 C94.9839986,16.2355554 95.0093983,15.9646248 95.0601986,15.6936901 L94.9331986,15.6936901 C94.2558619,15.6936901 93.6928342,16.0196535 93.2440986,16.6715901 C92.795363,17.3235267 92.5709986,18.2421508 92.5709986,19.4274901 C92.5709986,20.3588281 92.7530301,21.0700209 93.1170986,21.56109 C93.4811671,22.0521592 93.9087295,22.29769 94.3997986,22.29769 C94.941668,22.29769 95.4115633,22.0775589 95.8094986,21.63729 Z M107.899898,6.07979028 C107.58663,6.71479345 107.2903,7.59531796 107.010898,8.72139024 C106.731497,9.84746252 106.498666,11.0962833 106.312398,12.4678902 C107.31147,11.6042859 108.060763,10.6348623 108.560298,9.55959023 C109.059834,8.4843182 109.309598,7.506428 109.309598,6.62589027 C109.309598,5.62681863 109.123334,5.1272903 108.750798,5.1272903 C108.496797,5.1272903 108.213167,5.44478712 107.899898,6.07979028 Z M117.386798,4.8097903 C117.014263,5.68186131 116.654433,6.85871619 116.307298,8.34039025 C115.960163,9.8220643 115.676533,11.4349481 115.456398,13.1790902 C116.50627,11.9429507 117.374095,10.5967642 118.059898,9.14049024 C118.745702,7.68421631 119.088598,6.36342954 119.088598,5.17809029 C119.088598,4.63622093 119.029332,4.22135841 118.910798,3.93349031 C118.792264,3.64562221 118.622933,3.50169032 118.402798,3.50169032 C118.097997,3.50169032 117.759333,3.93771929 117.386798,4.8097903 Z M127.940498,16.6080901 C127.508696,17.3362271 127.292798,18.2167516 127.292798,19.2496901 L127.292798,19.3004901 C128.29187,19.0634222 129.079262,18.7078258 129.654998,18.2336901 C130.230734,17.7595544 130.518598,17.2092266 130.518598,16.5826901 C130.518598,16.2609552 130.429699,16.0027244 130.251898,15.8079901 C130.074097,15.6132558 129.8328,15.5158901 129.527998,15.5158901 C128.901462,15.5158901 128.3723,15.8799532 127.940498,16.6080901 Z M29.2487996,21.76429 C29.5874679,21.3240212 29.8329988,20.739827 29.9853996,20.0116901 L30.9251995,15.3380901 C30.213996,15.3550236 29.5578359,15.6217209 28.9566996,16.1381901 C28.3555632,16.6546594 27.8772014,17.3362192 27.5215996,18.1828901 C27.1659978,19.029561 26.9881996,19.9270187 26.9881996,20.8752901 C26.9881996,21.400226 27.0940319,21.7896888 27.3056996,22.04369 C27.5173673,22.2976913 27.8094644,22.42469 28.1819996,22.42469 C28.5545348,22.42469 28.9101312,22.2045589 29.2487996,21.76429 Z M20.8794997,5.81309029 C20.464631,6.49042699 20.0709349,7.41328442 19.6983997,8.58169024 C19.3258645,9.75009607 19.0295342,11.0285499 18.8093997,12.4170902 C20.1640731,11.8582874 21.1631298,11.0624287 21.8065997,10.0294902 C22.4500696,8.99655174 22.7717997,7.66729839 22.7717997,6.04169028 C22.7717997,5.65222167 22.704067,5.34742473 22.5685997,5.1272903 C22.4331323,4.90715586 22.2638007,4.7970903 22.0605997,4.7970903 C21.6880645,4.7970903 21.2943684,5.13575358 20.8794997,5.81309029 Z" id="path-1">
            </path>
        </clipPath>
    </defs>
    <g id="stroke" clip-path="url(#clip)" fill="none" stroke-dasharray="730 730" stroke-dashoffset="730">
        <path d="M-1.895834,12.86235 C-1.895834,12.86235 1.69494,4.92485 7.364583,4.83035 C13.034225,4.73585 3.017857,34.50149 3.017857,34.50149 L-1.423365,15.31919 C-1.423365,15.31919 12.18378,16.54762 18.798364,13.6183 C25.412947,10.68899 24.184523,4.45238 22.672618,3.601934 C21.160714,2.751487 17.726182,6.75694 16.908482,14.75223 C16.058035,23.06771 19.554315,25.99702 25.223958,21.17783 C24.880036,17.09362 30.232142,14.46875 30.137648,14.46875 C30.043158,14.46875 24.562499,17.58705 25.223958,21.17783 C25.716518,23.22736 28.326912,24.73426 29.636543,22.84495 C32.977972,18.02452 32.817423,12.28199 32.231654,17.97307 C30.950578,22.62401 32.513255,23.26562 33.161458,23.44568 C34.86235,23.91815 38.202973,22.60134 37.980655,14.94122 C37.924315,13.00009 37.224701,23.06771 39.114582,23.63467 C41.004464,24.20164 45.445683,16.16964 44.689732,15.03571 C43.93378,13.90178 41.854909,18.24851 46.012648,18.81548 C50.170385,19.38244 55.084076,21.36681 54.800593,16.35863 C54.517113,11.35044 48.091516,14.75223 49.036457,19.9494 C49.981398,25.14658 55.934523,24.7686 58.391367,21.27232 C60.848214,17.77604 63.800455,9.90437 63.800455,9.90437 L60.281249,30.24925 L55.273065,9.08259 C55.273065,9.08259 66.97038,2.598651 72.75689,4.52169 C74.50029,5.10107 76.78552,6.23096 76.65066,8.79911 C76.32953,14.91461 68.596725,14.27977 68.596725,14.27977 C68.596725,14.27977 75.60926,15.74107 73.60491,19.94941 C69.92585,24.64157 61.29757,23.30755 61.320683,23.2567 L80.88095,10.689 C80.88095,10.689 79.50965,18.21547 80.125,23.44569 C80.125,23.44569 84.66072,13.42933 86.73959,14.46876 C88.81845,15.5082 85.70015,19.09897 87.21205,19.38245 C88.72396,19.66593 90.80283,19.09897 90.80283,19.09897 C90.80283,19.09897 90.61384,14.37426 95.14955,14.56325 C99.68527,14.75224 97.79539,22.59525 95.90551,23.44569 C94.01562,24.29614 91.1808,22.97322 91.08631,21.55581 C90.99181,20.1384 90.51935,14.46876 94.67708,14.56325 C95.68828,14.50705 96.82381,14.63445 96.64627,15.14442 C95.8444,17.44757 96.75019,19.22515 100.06324,18.72099 C104.40997,18.05953 104.31547,17.87054 104.31547,17.87054 L104.59896,13.99629 C104.59896,13.99629 109.98512,12.01191 110.36309,8.13766 C110.74107,4.2634 109.98512,4.2634 109.04018,4.07441 C108.09524,3.885424 104.50446,6.72025 104.69345,14.65775 C104.88244,22.59525 105.16592,23.16221 107.52827,23.44569 C109.89062,23.72917 113.3869,20.79986 113.3869,20.79986 L113.85937,15.3192 C113.85937,15.3192 119.8125,11.82292 120.19047,5.96429 C120.56845,0.105663 115.18229,0.767122 113.95387,13.24034 C112.72545,25.71355 113.57589,23.2567 113.57589,23.2567 C113.57589,23.2567 117.54464,14.46876 120.47396,14.46876 C123.40328,14.46876 117.16666,23.54019 121.04092,23.54019 C124.91518,23.54019 125.95461,20.51638 125.95461,20.51638 C125.95461,20.51638 131.90774,20.1384 131.62425,16.35864 C131.34077,12.57888 125.57664,14.27977 126.04911,19.38245 C126.52157,24.48513 131.90774,24.9576 135.593,21.27233 C139.27827,17.58706 137.10491,14.37427 137.10491,14.37427 C137.10491,14.37427 136.34896,17.87054 136.34896,19.76042 C136.34896,21.65031 136.44346,23.44569 136.44346,23.44569 C136.44346,23.44569 139.84525,14.84674 142.30209,15.22471 C144.75894,12.86236 142.96355,21.08334 143.43602,18.532 C143.52852,18.03271 159.40725,13.49176 149.14707,11.2352 C141.13522,9.47313 107.7041,10.26491 102.95332,9.84293 C92.71509,8.93355 96.31736,12.41166 99.26285,14.11589 C99.99884,14.54173 112.67821,14.04349 112.67821,14.04349" id="Draw-in" stroke="#000000" stroke-width="3.7650001" stroke-linecap="round" stroke-linejoin="round" stroke-dasharray="729.99995932,729.99995932" mask="url(#mask-2)"></path>
    </g>
</svg>